<svg width="18" height="17" viewBox="0 0 18 17" fill="none" xmlns="http://www.w3.org/2000/svg">
<path style="mix-blend-mode:multiply" opacity="0.5" d="M9.07167 0.282592C9.15835 0.282592 9.24502 0.370681 9.33171 0.517497L11.3687 4.4962C11.536 4.7884 11.761 5.04227 12.0295 5.24187C12.298 5.44147 12.6043 5.58248 12.929 5.65604L17.263 6.41948C17.4364 6.41948 17.5375 6.50757 17.5664 6.58098C17.5953 6.65439 17.5664 6.78652 17.4219 6.90398L14.2581 10.0899C14.0389 10.3399 13.8731 10.6333 13.7712 10.9517C13.6692 11.2701 13.6333 11.6065 13.6658 11.9398L14.287 16.3442C14.3112 16.3945 14.3238 16.4497 14.3238 16.5057C14.3238 16.5617 14.3112 16.6169 14.287 16.6672C14.2688 16.6753 14.2491 16.6795 14.2292 16.6795C14.2093 16.6795 14.1896 16.6753 14.1714 16.6672C14.0906 16.6861 14.0066 16.6861 13.9258 16.6672L9.92403 14.6558C9.62129 14.5204 9.29412 14.4504 8.96333 14.4504C8.63253 14.4504 8.30534 14.5204 8.0026 14.6558L4.1453 16.6819C4.06434 16.6993 3.98067 16.6993 3.89971 16.6819C3.87926 16.6912 3.85711 16.696 3.8347 16.696C3.81229 16.696 3.79014 16.6912 3.76969 16.6819C3.73447 16.5772 3.73447 16.4636 3.76969 16.3589L4.44869 11.9544C4.48025 11.6213 4.44393 11.2851 4.34202 10.9668C4.24012 10.6486 4.0748 10.355 3.85637 10.1046L0.779189 6.88929C0.732074 6.85056 0.694486 6.8012 0.669409 6.74514C0.644333 6.68907 0.63247 6.62784 0.634734 6.5663C0.634734 6.49289 0.77919 6.43417 0.938105 6.4048L5.27215 5.68541C5.59399 5.6142 5.89768 5.47559 6.16384 5.27842C6.43 5.08124 6.65279 4.82983 6.81797 4.54024L8.86942 0.576224C8.9561 0.429409 9.04277 0.341319 9.12945 0.341319L9.07167 0.282592ZM9.12945 0.121094C8.97054 0.121094 8.81162 0.238546 8.6816 0.473451L6.63016 4.43747C6.473 4.70153 6.26332 4.92933 6.01455 5.10629C5.76578 5.28326 5.4834 5.4055 5.18547 5.46518L0.851428 6.18458C0.331342 6.27267 0.201317 6.65439 0.576934 7.05079L3.65411 10.2514C3.84621 10.481 3.99118 10.7474 4.08049 11.0348C4.16981 11.3223 4.20167 11.6249 4.1742 11.9251L3.50964 16.3295C3.50964 16.7113 3.61078 16.9462 3.88527 16.9462C4.00116 16.9427 4.11477 16.9126 4.21754 16.8581L8.17596 14.8761C8.44385 14.7543 8.73492 14.6941 9.02833 14.6999C9.33282 14.6916 9.63488 14.757 9.90959 14.8907L13.8391 16.9021C13.9474 16.9556 14.0655 16.9856 14.1858 16.9902C14.4603 16.9902 14.6193 16.77 14.5615 16.3736L13.9258 11.9691C13.9031 11.667 13.9399 11.3634 14.0342 11.076C14.1285 10.7886 14.2782 10.5232 14.4748 10.2954L17.5809 7.1242C17.942 6.74248 17.8264 6.34608 17.3064 6.25799L12.9723 5.49454C12.6728 5.43403 12.3893 5.30989 12.1403 5.13025C11.8914 4.95061 11.6826 4.71953 11.5276 4.45216L9.50508 0.473451C9.37506 0.238546 9.21613 0.121094 9.05721 0.121094H9.12945Z" fill="url(#paint0_radial_301_4657)"/>
<defs>
<radialGradient id="paint0_radial_301_4657" cx="0" cy="0" r="1" gradientUnits="userSpaceOnUse" gradientTransform="translate(3912.26 598.3) scale(318.076 307.861)">
<stop offset="0.35" stop-color="#FFC200"/>
<stop offset="0.51" stop-color="#FFBD07"/>
<stop offset="0.72" stop-color="#FFAF19"/>
<stop offset="0.98" stop-color="#FF9737"/>
<stop offset="1" stop-color="#FF953A"/>
</radialGradient>
</defs>
</svg>
